<svg width="1000" height="1000" viewBox="0 0 1000 1000" fill="none" xmlns="http://www.w3.org/2000/svg">
<path d="M648.435 249.565L534.174 194V164.522L648.435 108.957V135.304L570.435 172.609C566.956 174.174 563.652 175.565 560.522 176.783C557.391 177.826 555.043 178.522 553.478 178.87C555.217 179.217 557.652 179.913 560.783 180.957C564.087 182 567.304 183.304 570.435 184.87L648.435 222.435V249.565Z" fill="#4A5F75"/>
<path d="M691.376 312.174V121.739H719.289V149.13H725.289L719.289 155.652C719.289 144.348 722.768 135.478 729.724 129.044C736.855 122.435 746.333 119.13 758.159 119.13C772.594 119.13 784.072 124 792.594 133.739C801.289 143.304 805.637 156.435 805.637 173.13V213.565C805.637 224.696 803.637 234.348 799.637 242.522C795.811 250.522 790.333 256.783 783.202 261.304C776.246 265.652 767.898 267.826 758.159 267.826C746.507 267.826 737.115 264.609 729.985 258.174C722.855 251.565 719.289 242.609 719.289 231.304L725.289 237.826H718.768L719.55 271.217V312.174H691.376ZM748.507 243.304C757.724 243.304 764.855 240.696 769.898 235.478C775.115 230.087 777.724 222.348 777.724 212.261V174.696C777.724 164.609 775.115 156.957 769.898 151.739C764.855 146.348 757.724 143.652 748.507 143.652C739.637 143.652 732.594 146.435 727.376 152C722.159 157.391 719.55 164.957 719.55 174.696V212.261C719.55 222 722.159 229.652 727.376 235.217C732.594 240.609 739.637 243.304 748.507 243.304Z" fill="#4A5F75"/>
<path d="M847.013 249.565V222.957L925.014 185.652C928.492 184.087 931.796 182.783 934.927 181.739C938.057 180.696 940.405 180 941.97 179.652C940.231 179.304 937.709 178.609 934.405 177.565C931.274 176.348 928.144 174.957 925.014 173.391L847.013 136.087V108.957L961.274 164.522V194L847.013 249.565Z" fill="#4A5F75"/>
</svg>
