<svg width="1000" height="1000" viewBox="0 0 1000 1000" fill="none" xmlns="http://www.w3.org/2000/svg">
<g clip-path="url(#clip0_520_5145)">
<path d="M-108.696 1094.93V1072.2L116.74 983.573L435.024 1108.7H377.106L116.74 1006.36L-108.696 1094.93Z" fill="#4A5F75"/>
<path fill-rule="evenodd" clip-rule="evenodd" d="M516.81 1108.7L116.665 953.342L-108.696 1040.84V1018.29L-107.094 1017.67L-106.496 903.586C-107.415 903.014 -108.172 902.222 -108.696 901.285V894.555C-108.46 894.105 -108.175 893.677 -107.842 893.281C-108.057 892.824 -108.346 892.407 -108.696 892.046V881.355C-107.999 879.984 -107.387 878.011 -107.094 875.175H-108.696V844.85H401.599L405.787 830.129H-108.696V676.278L-107.543 674.532C-107.543 514.223 29.0162 450.482 42.029 444.741L50.8537 431.051L47.4135 424.132H41.8794L36.3452 412.797L45.1699 405.879L47.5631 399.696H66.8579L62.3707 382.473H73.439L74.9347 380.265V338.752C74.3314 337.999 74.014 337.062 74.0373 336.103C74.0158 335.614 74.0978 335.126 74.278 334.669C74.4583 334.213 74.7328 333.799 75.0843 333.453V331.392H73.2894L67.7552 319.91H75.0843L61.922 290.763H71.1955C71.7849 281.97 74.6688 273.476 79.5684 266.101C84.4681 258.726 91.2178 252.719 99.1654 248.662H98.1184L103.952 236.885C103.941 234.39 104.672 231.946 106.054 229.854C107.436 227.762 109.408 226.112 111.729 225.108H119.956C122.357 226.034 124.415 227.656 125.857 229.759C127.3 231.862 128.059 234.347 128.033 236.885L134.016 249.398H133.118C141.084 253.432 147.85 259.433 152.752 266.813C157.655 274.193 160.527 282.699 161.088 291.499H170.96L157.349 319.91H164.827L159.742 331.539H158.545V333.011C159.1 333.391 159.553 333.898 159.865 334.487C160.178 335.077 160.341 335.732 160.34 336.397C160.287 337.323 159.918 338.205 159.293 338.899V380.559L160.789 382.62H170.96L166.173 399.843H186.366L188.609 406.026L196.387 412.945L190.853 424.28H185.319L181.878 431.198L191.152 445.036C207.156 451.954 340.724 515.99 340.724 674.532L344.313 680.42H363.608V689.547L356.429 700.44V718.694L345.809 738.419V805.693H444.227L436.3 824.683H444.227L434.056 856.185H423.586V875.175H408.629C409.527 884.596 414.163 884.596 414.163 884.596V890.779C413.361 890.75 412.564 890.908 411.836 891.241C411.108 891.573 410.47 892.071 409.975 892.692C410.896 893.282 411.653 894.09 412.175 895.041C412.698 895.993 412.97 897.058 412.967 898.139C412.92 899.282 412.58 900.394 411.978 901.372C411.377 902.35 410.533 903.162 409.527 903.733L410.873 1044.9L575.154 1108.7H516.81ZM124.892 273.392C129.678 273.392 141.345 288.113 141.943 299.448V300.773H126.986V299.595C126.965 292.36 126.112 285.15 124.443 278.103V273.245L124.892 273.392ZM130.127 323.737H139.849V382.031H130.127V323.737ZM90.0415 299.448C90.0415 288.996 101.708 273.392 107.093 273.392H108.588V277.956C106.578 285.015 105.374 292.273 104.999 299.595V300.773H90.0415V299.448ZM93.7807 323.737H103.353V382.031H93.7807V323.737ZM152.712 404.995L150.468 419.716H82.862L80.6184 404.995H152.712ZM66.8579 431.198H166.323L174.699 445.919H58.6314L66.8579 431.198ZM-80.1711 666.73C-78.5258 526.883 47.1144 471.68 52.499 469.472H75.0843C75.0843 469.472 60.1271 476.096 56.0887 478.746C55.8921 478.875 55.4271 479.145 54.7208 479.556L54.7169 479.558C40.8982 487.591 -65.0534 549.179 -61.9234 656.719H0.298449C-0.403863 623.076 5.86508 589.644 18.7229 558.463C31.5806 527.283 50.7577 499.007 75.0843 475.36L82.4134 469.325H93.9303L87.4988 478.305C41.7007 526.671 16.2097 590.312 16.153 656.425H68.204C68.204 563.832 87.4988 498.177 98.1184 476.244L101.259 469.325H115.17L112.926 477.716C94.7132 535.601 85.3374 595.828 85.1055 656.425H148.374C148.24 595.843 138.965 535.616 120.853 477.716L118.46 469.325H132.52L135.661 476.244C156.544 534.031 166.432 595.111 164.827 656.425H217.177C217.121 590.312 191.63 526.671 145.832 478.305L139.4 469.325H150.768L158.246 475.36C182.536 498.972 201.691 527.201 214.548 558.328C227.405 589.455 233.693 622.831 233.032 656.425H295.104C298.381 543.857 182.731 481.493 177.158 478.487L177.092 478.452C172.455 475.949 158.097 469.178 158.097 469.178H180.532C185.917 471.386 311.557 526.588 313.202 666.435V671.44H-80.3207L-80.1711 666.73ZM-97.671 694.699H333.095V709.42H-97.671V694.699ZM315.147 743.425V805.987H302.284V743.425C302.284 740.48 303.929 729.734 308.715 729.734C313.502 729.734 315.147 740.333 315.147 743.425ZM264.741 743.425V805.987H243.352V743.572C243.352 743.572 243.352 729.734 253.224 729.734C263.096 729.734 264.741 742.1 264.741 743.425ZM205.81 743.425V805.987H173.502V743.572C173.429 741.659 173.772 739.752 174.511 737.981C175.249 736.209 176.364 734.614 177.781 733.303C179.199 731.992 180.885 730.994 182.727 730.379C184.569 729.763 186.524 729.544 188.46 729.734C204.314 729.734 205.81 740.333 205.81 743.425ZM132.37 743.572V805.987H100.96V743.572C101.485 739.839 103.364 736.42 106.251 733.945C109.137 731.47 112.837 730.106 116.665 730.106C120.494 730.106 124.193 731.47 127.08 733.945C129.966 736.42 131.846 739.839 132.37 743.572ZM59.2297 743.572V805.84H27.8197V743.572C28.3443 739.839 30.2235 736.42 33.1102 733.945C35.9969 731.47 39.6962 730.106 43.5247 730.106C47.3532 730.106 51.0524 731.47 53.9391 733.945C56.8258 736.42 58.7051 739.839 59.2297 743.572ZM-9.87245 743.572V805.84H-31.2612V743.572C-31.2612 742.1 -31.2612 729.734 -20.6416 729.734C-10.7136 729.734 -10.067 740.413 -9.90276 743.127C-9.89138 743.314 -9.88214 743.467 -9.87245 743.572ZM-68.9532 743.572V805.84H-81.8164V743.425C-81.8164 740.48 -80.3207 729.734 -75.3848 729.734C-70.4489 729.734 -68.9532 740.333 -68.9532 743.572ZM-37.8423 990.585L-74.4874 1005.31V903.586C-73.5364 902.98 -72.7521 902.152 -72.2042 901.177C-71.6562 900.201 -71.3616 899.107 -71.3464 897.992C-71.3461 896.943 -71.5883 895.907 -72.0548 894.963C-72.5212 894.02 -73.1996 893.193 -74.0387 892.545C-73.6222 891.949 -73.0635 891.463 -72.4115 891.129C-71.7595 890.796 -71.0342 890.625 -70.2994 890.632V884.449C-70.2994 884.449 -74.4874 884.449 -75.2353 875.175H-37.3936C-38.1415 883.86 -42.0303 884.449 -42.1799 884.449V890.632C-41.2981 890.636 -40.4357 890.887 -39.6939 891.356C-38.9521 891.826 -38.3617 892.493 -37.9919 893.281C-39.1572 894.582 -39.7959 896.258 -39.7868 897.992C-39.7994 899.112 -39.5166 900.216 -38.9661 901.197C-38.4156 902.177 -37.6161 903 -36.6457 903.586L-37.8423 990.585ZM31.7085 963.646L-5.23572 978.367V903.88C-4.31242 903.258 -3.55734 902.423 -3.03607 901.448C-2.5148 900.473 -2.243 899.388 -2.2443 898.286C-2.22068 897.233 -2.45261 896.19 -2.92086 895.242C-3.38908 894.295 -4.08012 893.471 -4.93656 892.84C-4.48787 892.241 -3.90157 891.756 -3.22563 891.423C-2.54972 891.091 -1.80337 890.92 -1.04769 890.926V884.743C-1.04769 884.743 -5.23571 884.743 -5.98357 875.469H31.8581C31.8581 884.154 27.2214 884.743 27.0718 884.743V890.926C27.9577 890.911 28.8281 891.155 29.5734 891.627C30.3187 892.098 30.9055 892.776 31.2598 893.576C30.1485 894.897 29.5637 896.572 29.6145 898.286C29.6019 899.406 29.8846 900.511 30.4351 901.491C30.9856 902.472 31.7852 903.295 32.7555 903.88L31.7085 963.646ZM100.96 936.707L64.016 951.428V904.175C64.8834 903.53 65.587 902.695 66.0715 901.738C66.5559 900.78 66.8081 899.724 66.8081 898.654C66.8081 897.584 66.5559 896.529 66.0715 895.571C65.587 894.613 64.8834 893.779 64.016 893.134C64.4324 892.538 64.9911 892.052 65.6431 891.718C66.2951 891.385 67.0204 891.214 67.7552 891.22V885.038C67.7552 885.038 63.7168 884.007 62.8194 875.322H100.811C99.9132 884.007 96.0243 885.038 95.8747 885.038V891.22C96.7526 891.241 97.6077 891.5 98.3464 891.967C99.085 892.434 99.6788 893.093 100.063 893.87C98.9515 895.192 98.3668 896.866 98.4175 898.581C98.3743 899.689 98.6279 900.79 99.1529 901.772C99.6779 902.753 100.456 903.582 101.409 904.175L100.96 936.707ZM170.062 951.428L133.268 936.707V903.144C134.219 902.538 135.003 901.711 135.551 900.735C136.099 899.759 136.394 898.665 136.409 897.55C136.409 896.501 136.167 895.465 135.7 894.522C135.234 893.578 134.555 892.751 133.716 892.104C134.133 891.508 134.692 891.021 135.344 890.688C135.996 890.354 136.721 890.183 137.456 890.19V884.007C137.456 884.007 133.268 884.007 132.52 874.733H170.361C170.361 883.418 165.725 884.007 165.575 884.007V890.19C166.457 890.194 167.319 890.445 168.061 890.915C168.803 891.384 169.393 892.052 169.763 892.84C168.598 894.14 167.959 895.817 167.968 897.55C167.956 898.67 168.238 899.775 168.789 900.755C169.34 901.736 170.139 902.559 171.109 903.144L170.062 951.428ZM239.613 978.367L202.669 963.646V903.291C203.592 902.669 204.347 901.834 204.869 900.859C205.39 899.884 205.662 898.799 205.66 897.697C205.684 896.644 205.452 895.601 204.984 894.654C204.516 893.706 203.825 892.883 202.968 892.251C203.393 891.664 203.954 891.184 204.604 890.852C205.254 890.519 205.975 890.343 206.707 890.337V884.154C206.707 884.154 202.519 884.154 201.772 874.88H239.613C238.865 883.566 234.976 884.154 234.827 884.154V890.337C235.713 890.323 236.583 890.566 237.329 891.038C238.074 891.51 238.661 892.188 239.015 892.987C237.904 894.308 237.319 895.983 237.37 897.697C237.357 898.818 237.64 899.922 238.19 900.902C238.741 901.883 239.54 902.706 240.511 903.291L239.613 978.367ZM308.117 1005.31L271.921 990.585L271.023 903.144C271.929 902.504 272.671 901.666 273.19 900.695C273.709 899.724 273.992 898.647 274.015 897.55C274.038 896.497 273.806 895.454 273.338 894.506C272.87 893.559 272.179 892.735 271.322 892.104C271.739 891.508 272.297 891.021 272.949 890.688C273.601 890.354 274.327 890.183 275.062 890.19V884.007C275.062 884.007 270.874 884.007 270.126 874.733H308.117C307.22 883.418 303.331 884.007 303.181 884.007V890.19C304.063 890.194 304.925 890.445 305.667 890.915C306.409 891.384 306.999 892.052 307.369 892.84C306.258 894.161 305.673 895.836 305.724 897.55C305.681 898.659 305.934 899.759 306.459 900.741C306.984 901.723 307.762 902.552 308.715 903.144L308.117 1005.31ZM377.219 1032.1L341.023 1017.38L340.125 903.144C341.076 902.538 341.861 901.711 342.409 900.735C342.957 899.759 343.251 898.665 343.266 897.55C343.267 896.501 343.024 895.465 342.558 894.522C342.092 893.578 341.413 892.751 340.574 892.104C340.99 891.508 341.549 891.021 342.201 890.688C342.853 890.354 343.579 890.183 344.313 890.19V884.007C344.313 884.007 340.125 884.007 339.377 874.733H377.219C376.471 883.418 372.582 884.007 372.433 884.007V890.19C373.34 890.165 374.234 890.403 375.005 890.874C375.777 891.345 376.39 892.029 376.77 892.84C375.605 894.14 374.966 895.817 374.976 897.55C374.963 898.67 375.246 899.775 375.796 900.755C376.347 901.736 377.146 902.559 378.116 903.144L377.219 1032.1Z" fill="#4A5F75"/>
</g>
<defs>
<clipPath id="clip0_520_5145">
<rect width="1000" height="1000" fill="white"/>
</clipPath>
</defs>
</svg>
